<svg width="122" height="41" viewBox="0 0 122 41" fill="none" xmlns="http://www.w3.org/2000/svg">
<path fill-rule="evenodd" clip-rule="evenodd" d="M2.68164 0V22.1885C2.68164 30.6271 9.4687 37.4679 17.841 37.4679C26.2133 37.4679 33.0004 30.6271 33.0004 22.1885C33.0004 13.75 26.2133 6.90922 17.841 6.90922C14.3367 6.90922 11.1105 8.10824 8.54315 10.1207V3.7679C8.54315 1.68693 6.86942 0 4.80482 0H2.68164ZM8.54315 22.1885C8.54315 17.0129 12.7059 12.8171 17.841 12.8171C22.9761 12.8171 27.1389 17.0129 27.1389 22.1885C27.1389 27.3643 22.9761 31.56 17.841 31.56C12.7059 31.56 8.54315 27.3643 8.54315 22.1885Z" fill="url(#paint0_linear_1623_22291)"/>
<path fill-rule="evenodd" clip-rule="evenodd" d="M6.80625 37.5727C6.80625 39.4661 5.28261 41.0009 3.40311 41.0009C1.52361 41.0009 0 39.4661 0 37.5727C0 35.6794 1.52361 34.1445 3.40311 34.1445C5.28261 34.1445 6.80625 35.6794 6.80625 37.5727Z" fill="url(#paint1_linear_1623_22291)"/>
<g clip-path="url(#clip0_1623_22291)">
<path d="M42.5137 9H50.4188C52.7857 9 54.6589 9.56018 56.0354 10.6806C57.412 11.8009 58.1003 13.3625 58.1003 15.3652C58.1003 16.4101 57.8709 17.3389 57.412 18.1487C56.9531 18.9585 56.2649 19.6203 55.3471 20.1311C56.4769 20.6217 57.3423 21.327 57.9406 22.2413C58.5388 23.1585 58.835 24.2788 58.835 25.5995C58.835 26.6879 58.6492 27.6457 58.2745 28.4788C57.8999 29.3089 57.3743 30.0142 56.6918 30.5889C56.0093 31.1636 55.1816 31.6019 54.2116 31.9008C53.2416 32.1998 52.1584 32.3478 50.9648 32.3478H42.5137V9ZM46.0016 12.1666V18.7234H50.5466C51.9551 18.7234 52.9832 18.4099 53.6337 17.7801C54.2842 17.1503 54.6095 16.3463 54.6095 15.3652C54.6095 14.3406 54.2581 13.554 53.5524 12.9997C52.8496 12.4453 51.8041 12.1695 50.4159 12.1695H46.0016V12.1666ZM46.0016 21.951V29.1463H50.9619C52.3472 29.1463 53.4246 28.8155 54.1942 28.1537C54.9609 27.4919 55.3471 26.6182 55.3471 25.5298C55.3471 24.421 54.9957 23.5474 54.29 22.9059C53.5872 22.2674 52.4227 21.9452 50.8021 21.9452H46.0016V21.951Z" fill="url(#paint2_linear_1623_22291)"/>
<path d="M61.0107 11.5908C61.0107 10.9087 61.2227 10.3543 61.6497 9.92762C62.0766 9.50095 62.6313 9.28906 63.3137 9.28906C63.9962 9.28906 64.5509 9.50385 64.9778 9.92762C65.4047 10.3543 65.6167 10.9087 65.6167 11.5908C65.6167 12.2728 65.4018 12.8272 64.9778 13.2539C64.5509 13.6806 63.9962 13.8924 63.3137 13.8924C62.6313 13.8924 62.0766 13.6806 61.6497 13.2539C61.2227 12.8272 61.0107 12.2728 61.0107 11.5908ZM61.5858 16.3538H65.0417V32.3437H61.5858V16.3538Z" fill="url(#paint3_linear_1623_22291)"/>
<path d="M67.5361 16.3552H70.2573V12.5819L73.7133 10.6953V16.3552H77.1053V19.4261H73.7133V25.7913C73.7133 26.5169 73.751 27.0974 73.8265 27.5328C73.902 27.9711 74.0618 28.3049 74.3057 28.54C74.5497 28.7751 74.8924 28.9289 75.3309 29.0044C75.7665 29.0798 76.359 29.1176 77.1082 29.1176V32.3481H76.5971C75.3803 32.3481 74.3667 32.2407 73.5565 32.0288C72.7462 31.8169 72.0957 31.4599 71.6049 30.9577C71.1141 30.4556 70.7685 29.7909 70.5652 28.9579C70.3619 28.1249 70.2602 27.0829 70.2602 25.8232V19.4261H67.539V16.3552H67.5361Z" fill="url(#paint4_linear_1623_22291)"/>
<path d="M85.3933 32.6655C83.5375 32.6655 82.0854 32.2128 81.0399 31.3072C79.9944 30.4016 79.4717 29.0519 79.4717 27.2611H82.9596V27.3249C82.9799 28.155 83.2268 28.753 83.6943 29.1158C84.1648 29.4786 84.7514 29.6585 85.4542 29.6585C86.2006 29.6585 86.7611 29.4786 87.1328 29.1158C87.5046 28.753 87.6934 28.2624 87.6934 27.6442C87.6934 27.3249 87.5917 27.0521 87.3884 26.8286C87.1851 26.6051 86.9121 26.4077 86.5723 26.2365C86.2297 26.0652 85.8376 25.9114 85.3875 25.7721C84.9402 25.6328 84.4814 25.4789 84.0109 25.3077C83.4997 25.1364 82.9973 24.9362 82.5065 24.7011C82.0157 24.4659 81.5743 24.167 81.1793 23.8042C80.7844 23.4414 80.4649 23.006 80.218 22.4922C79.9712 21.9814 79.8492 21.3516 79.8492 20.6056C79.8492 19.9874 79.9654 19.4011 80.2006 18.8467C80.4359 18.2923 80.7815 17.8076 81.2403 17.3925C81.6992 16.9775 82.2655 16.6466 82.9363 16.3999C83.6072 16.1561 84.371 16.0312 85.2248 16.0312C86.9325 16.0312 88.2916 16.4579 89.3052 17.3113C90.3187 18.1646 90.824 19.3807 90.824 20.9568H87.4639V20.9278C87.4639 19.5433 86.7379 18.8496 85.2887 18.8496C84.6062 18.8496 84.098 19.0208 83.7698 19.3604C83.4388 19.7029 83.2732 20.118 83.2732 20.6085C83.2732 20.9075 83.3749 21.1629 83.5782 21.3748C83.7814 21.5896 84.0515 21.7811 84.3942 21.9495C84.734 22.1207 85.1261 22.2804 85.5617 22.4284C85.9973 22.5764 86.4533 22.739 86.9208 22.9073C87.432 23.0989 87.9344 23.3137 88.4252 23.5459C88.916 23.781 89.3545 24.0799 89.7379 24.4398C90.1212 24.8026 90.432 25.238 90.6672 25.7518C90.9024 26.2626 91.0186 26.8808 91.0186 27.6065C91.0186 28.245 90.9024 28.8691 90.6672 29.4786C90.432 30.0852 90.0806 30.6251 89.6101 31.0924C89.1396 31.5626 88.553 31.9399 87.8502 32.2273C87.1532 32.5204 86.3313 32.6655 85.3933 32.6655Z" fill="url(#paint5_linear_1623_22291)"/>
<path d="M101.074 32.6666C100.048 32.6666 99.0638 32.4692 98.1142 32.0744C97.1645 31.6797 96.3165 31.1253 95.5701 30.4113C94.8238 29.6973 94.2255 28.8294 93.7783 27.8048C93.331 26.7803 93.1074 25.6309 93.1074 24.3509C93.1074 23.0708 93.3252 21.9215 93.7638 20.8969C94.1994 19.8723 94.7889 18.9986 95.5237 18.273C96.2584 17.5474 97.1123 16.993 98.0822 16.6099C99.0522 16.2267 100.06 16.0352 101.105 16.0352C102.171 16.0352 103.173 16.2499 104.114 16.6737C105.052 17.1004 105.822 17.6867 106.417 18.4326V16.3544H109.841V32.3444H106.417V30.1385C105.799 30.9279 105.02 31.5462 104.082 31.9932C103.141 32.4431 102.139 32.6666 101.074 32.6666ZM101.553 29.5318C102.279 29.5318 102.95 29.3925 103.568 29.1168C104.187 28.841 104.721 28.4666 105.168 27.9964C105.616 27.5291 105.967 26.9776 106.226 26.3507C106.481 25.7208 106.609 25.0446 106.609 24.3189C106.609 23.6165 106.481 22.9489 106.226 22.3191C105.97 21.6893 105.619 21.1407 105.168 20.6734C104.721 20.2061 104.187 19.8316 103.568 19.553C102.95 19.2773 102.279 19.1379 101.553 19.1379C100.85 19.1379 100.188 19.2715 99.5692 19.5385C98.9506 19.8055 98.4104 20.1741 97.9545 20.6414C97.4956 21.1117 97.1384 21.6602 96.8828 22.2872C96.6273 22.917 96.4995 23.5933 96.4995 24.3189C96.4995 25.0446 96.6273 25.7266 96.8828 26.3652C97.1384 27.0038 97.4956 27.5581 97.9545 28.0283C98.4133 28.4985 98.9506 28.8643 99.5692 29.1313C100.188 29.3983 100.85 29.5318 101.553 29.5318Z" fill="url(#paint6_linear_1623_22291)"/>
<path d="M112.432 16.3552H115.153V12.5819L118.609 10.6953V16.3552H122.001V19.4261H118.609V25.7913C118.609 26.5169 118.647 27.0974 118.722 27.5328C118.798 27.9711 118.957 28.3049 119.201 28.54C119.445 28.7751 119.788 28.9289 120.226 29.0044C120.662 29.0798 121.254 29.1176 122.004 29.1176V32.3481H121.493C120.276 32.3481 119.262 32.2407 118.452 32.0288C117.642 31.8169 116.991 31.4599 116.5 30.9577C116.01 30.4556 115.664 29.7909 115.461 28.9579C115.257 28.1249 115.156 27.0829 115.156 25.8232V19.4261H112.435V16.3552H112.432Z" fill="url(#paint7_linear_1623_22291)"/>
</g>
<defs>
<linearGradient id="paint0_linear_1623_22291" x1="2.68164" y1="21.0757" x2="33.0007" y2="21.0973" gradientUnits="userSpaceOnUse">
<stop stop-color="#E93E3A"/>
<stop offset="1" stop-color="#FD9E01"/>
</linearGradient>
<linearGradient id="paint1_linear_1623_22291" x1="-1.74565e-08" y1="38.0013" x2="6.80631" y2="38.0072" gradientUnits="userSpaceOnUse">
<stop stop-color="#E93E3A"/>
<stop offset="1" stop-color="#FD9E01"/>
</linearGradient>
<linearGradient id="paint2_linear_1623_22291" x1="42.5137" y1="22.1331" x2="58.8352" y2="22.1432" gradientUnits="userSpaceOnUse">
<stop stop-color="#E93E3A"/>
<stop offset="1" stop-color="#FD9E01"/>
</linearGradient>
<linearGradient id="paint3_linear_1623_22291" x1="61.0107" y1="22.2573" x2="65.6168" y2="22.2581" gradientUnits="userSpaceOnUse">
<stop stop-color="#E93E3A"/>
<stop offset="1" stop-color="#FD9E01"/>
</linearGradient>
<linearGradient id="paint4_linear_1623_22291" x1="67.5361" y1="22.875" x2="77.1083" y2="22.8787" gradientUnits="userSpaceOnUse">
<stop stop-color="#E93E3A"/>
<stop offset="1" stop-color="#FD9E01"/>
</linearGradient>
<linearGradient id="paint5_linear_1623_22291" x1="79.4717" y1="25.388" x2="91.0187" y2="25.3951" gradientUnits="userSpaceOnUse">
<stop stop-color="#E93E3A"/>
<stop offset="1" stop-color="#FD9E01"/>
</linearGradient>
<linearGradient id="paint6_linear_1623_22291" x1="93.1074" y1="25.3903" x2="109.841" y2="25.4052" gradientUnits="userSpaceOnUse">
<stop stop-color="#E93E3A"/>
<stop offset="1" stop-color="#FD9E01"/>
</linearGradient>
<linearGradient id="paint7_linear_1623_22291" x1="112.432" y1="22.875" x2="122.004" y2="22.8787" gradientUnits="userSpaceOnUse">
<stop stop-color="#E93E3A"/>
<stop offset="1" stop-color="#FD9E01"/>
</linearGradient>
<clipPath id="clip0_1623_22291">
<rect width="79.4868" height="23.6671" fill="white" transform="translate(42.5137 9)"/>
</clipPath>
</defs>
</svg>
